<svg version="1.1" xmlns="http://www.w3.org/2000/svg" xmlns:xlink="http://www.w3.org/1999/xlink" width="740" height="364"><defs></defs><g><g transform="translate(-6,6) scale(1,1)"><path fill="none" stroke="#000000" d="M 16 4 L 736 4 L 736 348 L 16 348 L 16 4" stroke-miterlimit="10"></path></g><g transform="translate(-6,6) scale(1,1)"><path fill="#ffffff" stroke="none" d="M 16 4 L 16 26 L 163 26 L 174 15 L 174 4 L 16 4"></path></g><g transform="translate(-6,6) scale(1,1)"><path fill="none" stroke="#000000" d="M 16 4 L 16 26 L 163 26 L 174 15 L 174 4 L 16 4 L 16 4" stroke-miterlimit="10"></path></g><g transform="translate(-6,6) scale(1,1)"><g><path fill="none" stroke="none"></path><text fill="#000000" stroke="none" font-family="Arial" font-size="13px" font-style="normal" font-weight="normal" text-decoration="none" x="64.5" y="21.5">Setup Volume SD</text></g></g><g transform="translate(-6,6) scale(1,1)"><g><path fill="none" stroke="none"></path><text fill="#000000" stroke="none" font-family="Arial" font-size="13px" font-style="normal" font-weight="bold" text-decoration="none" x="15" y="21.5">interaction</text></g></g><g transform="translate(-6,6) scale(1,1)"><rect fill="#C0C0C0" stroke="none" x="87" y="75" width="81" height="39" opacity="0.2"></rect></g><g transform="translate(-6,6) scale(1,1)"><rect fill="#ffffff" stroke="none" x="80" y="68" width="81" height="39"></rect></g><g transform="translate(-6,6) scale(1,1)"><path fill="none" stroke="#000000" d="M 80 68 L 161 68 L 161 107 L 80 107 L 80 68 Z Z" stroke-miterlimit="10"></path></g><g transform="translate(-6,6) scale(1,1)"><g><path fill="none" stroke="none"></path><text fill="#000000" stroke="none" font-family="Arial" font-size="13px" font-style="normal" font-weight="bold" text-decoration="none" x="91.5" y="87.5">Developer</text></g></g><g transform="translate(-6,6) scale(1,1)"><path fill="none" stroke="#000000" d="M 121.5 108 L 121.5 308" stroke-miterlimit="10" stroke-dasharray="3"></path></g><g transform="translate(-6,6) scale(1,1)"><rect fill="#C0C0C0" stroke="none" x="211" y="75" width="144" height="39" opacity="0.2"></rect></g><g transform="translate(-6,6) scale(1,1)"><rect fill="#ffffff" stroke="none" x="204" y="68" width="144" height="39"></rect></g><g transform="translate(-6,6) scale(1,1)"><path fill="none" stroke="#000000" d="M 204 68 L 348 68 L 348 107 L 204 107 L 204 68 Z Z" stroke-miterlimit="10"></path></g><g transform="translate(-6,6) scale(1,1)"><g><path fill="none" stroke="none"></path><text fill="#000000" stroke="none" font-family="Arial" font-size="13px" font-style="normal" font-weight="bold" text-decoration="none" x="221.5" y="87.5">SetupVolumeStory</text></g></g><g transform="translate(-6,6) scale(1,1)"><path fill="none" stroke="#000000" d="M 277 108 L 277 308" stroke-miterlimit="10" stroke-dasharray="3"></path></g><g transform="translate(-6,6) scale(1,1)"><rect fill="#C0C0C0" stroke="none" x="411" y="75" width="144" height="39" opacity="0.2"></rect></g><g transform="translate(-6,6) scale(1,1)"><rect fill="#ffffff" stroke="none" x="404" y="68" width="144" height="39"></rect></g><g transform="translate(-6,6) scale(1,1)"><path fill="none" stroke="#000000" d="M 404 68 L 548 68 L 548 107 L 404 107 L 404 68 Z Z" stroke-miterlimit="10"></path></g><g transform="translate(-6,6) scale(1,1)"><g><path fill="none" stroke="none"></path><text fill="#000000" stroke="none" font-family="Arial" font-size="13px" font-style="normal" font-weight="bold" text-decoration="none" x="417.5" y="87.5">setup_volume_story</text></g></g><g transform="translate(-6,6) scale(1,1)"><path fill="none" stroke="#000000" d="M 477 108 L 477 308" stroke-miterlimit="10" stroke-dasharray="3"></path></g><g transform="translate(-6,6) scale(1,1)"><rect fill="#C0C0C0" stroke="none" x="599" y="75" width="116" height="39" opacity="0.2"></rect></g><g transform="translate(-6,6) scale(1,1)"><rect fill="#ffffff" stroke="none" x="592" y="68" width="116" height="39"></rect></g><g transform="translate(-6,6) scale(1,1)"><path fill="none" stroke="#000000" d="M 592 68 L 708 68 L 708 107 L 592 107 L 592 68 Z Z" stroke-miterlimit="10"></path></g><g transform="translate(-6,6) scale(1,1)"><g><path fill="none" stroke="none"></path><text fill="#000000" stroke="none" font-family="Arial" font-size="13px" font-style="normal" font-weight="bold" text-decoration="none" x="605" y="87.5">Gluster Volume</text></g></g><g transform="translate(-6,6) scale(1,1)"><path fill="none" stroke="#000000" d="M 651 108 L 651 308" stroke-miterlimit="10" stroke-dasharray="3"></path></g><g transform="translate(-6,6) scale(1,1)"><path fill="none" stroke="#000000" d="M 121 174 L 269.5 174" stroke-miterlimit="10"></path></g><g transform="translate(-6,6) scale(1,1)"><path fill="#000000" stroke="none" d="M 259.33732514237585 178.209517756016 L 269.5 174 L 259.33732514237585 169.790482243984"></path></g><g transform="translate(-6,6) scale(1,1)"><path fill="none" stroke="#000000" d="M 259.33732514237585 178.209517756016 L 269.5 174 L 259.33732514237585 169.790482243984 L 259.33732514237585 178.209517756016" stroke-miterlimit="10"></path></g><g transform="translate(-6,6) scale(1,1)"><g><path fill="none" stroke="none"></path><text fill="#000000" stroke="none" font-family="Arial" font-size="13px" font-style="normal" font-weight="normal" text-decoration="none" x="182" y="171">run()</text></g></g><g transform="translate(-6,6) scale(1,1)"><rect fill="#ffffff" stroke="none" x="269.5" y="174" width="13" height="126"></rect></g><g transform="translate(-6,6) scale(1,1)"><path fill="none" stroke="#000000" d="M 269.5 174 L 282.5 174 L 282.5 300 L 269.5 300 L 269.5 174 Z Z" stroke-miterlimit="10"></path></g><g transform="translate(-6,6) scale(1,1)"><path fill="none" stroke="#000000" d="M 282.5 181 L 469.5 181" stroke-miterlimit="10"></path></g><g transform="translate(-6,6) scale(1,1)"><path fill="#000000" stroke="none" d="M 459.33732514237585 185.209517756016 L 469.5 181 L 459.33732514237585 176.790482243984"></path></g><g transform="translate(-6,6) scale(1,1)"><path fill="none" stroke="#000000" d="M 459.33732514237585 185.209517756016 L 469.5 181 L 459.33732514237585 176.790482243984 L 459.33732514237585 185.209517756016" stroke-miterlimit="10"></path></g><g transform="translate(-6,6) scale(1,1)"><g><path fill="none" stroke="none"></path><text fill="#000000" stroke="none" font-family="Arial" font-size="13px" font-style="normal" font-weight="normal" text-decoration="none" x="327" y="178">useStoryLoader()</text></g></g><g transform="translate(-6,6) scale(1,1)"><rect fill="#ffffff" stroke="none" x="469.5" y="181" width="13" height="28"></rect></g><g transform="translate(-6,6) scale(1,1)"><path fill="none" stroke="#000000" d="M 469.5 181 L 482.5 181 L 482.5 209 L 469.5 209 L 469.5 181 Z Z" stroke-miterlimit="10"></path></g><g transform="translate(-6,6) scale(1,1)"><path fill="none" stroke="#000000" d="M 476.5 211 L 282.5 211" stroke-miterlimit="10" stroke-dasharray="3"></path></g><g transform="translate(-6,6) scale(1,1)"><path fill="none" stroke="#000000" d="M 292.66267485762415 206.790482243984 L 282.5 211 L 292.66267485762415 215.209517756016" stroke-miterlimit="10"></path></g><g transform="translate(-6,6) scale(1,1)"><g><path fill="none" stroke="none"></path><text fill="#000000" stroke="none" font-family="Arial" font-size="13px" font-style="normal" font-weight="normal" text-decoration="none" x="327" y="228">given, when, then</text></g></g><g transform="translate(-6,6) scale(1,1)"><path fill="none" stroke="#000000" d="M 282.5 264 L 643.5 264" stroke-miterlimit="10"></path></g><g transform="translate(-6,6) scale(1,1)"><path fill="#000000" stroke="none" d="M 633.3373251423759 268.209517756016 L 643.5 264 L 633.3373251423758 259.790482243984"></path></g><g transform="translate(-6,6) scale(1,1)"><path fill="none" stroke="#000000" d="M 633.3373251423759 268.209517756016 L 643.5 264 L 633.3373251423758 259.790482243984 L 633.3373251423759 268.209517756016" stroke-miterlimit="10"></path></g><g transform="translate(-6,6) scale(1,1)"><g><path fill="none" stroke="none"></path><text fill="#000000" stroke="none" font-family="Arial" font-size="13px" font-style="normal" font-weight="normal" text-decoration="none" x="417" y="261">getFilesStores()</text></g></g><g transform="translate(-6,6) scale(1,1)"><rect fill="#ffffff" stroke="none" x="643.5" y="264" width="13" height="28"></rect></g><g transform="translate(-6,6) scale(1,1)"><path fill="none" stroke="#000000" d="M 643.5 264 L 656.5 264 L 656.5 292 L 643.5 292 L 643.5 264 Z Z" stroke-miterlimit="10"></path></g></g></svg>